<svg xmlns="http://www.w3.org/2000/svg" viewBox="0 0 45 45" width="45" height="45"><defs><linearGradient id="tg" x1="0" y1="0" x2="0.25" y2="1"><stop offset="0" stop-color="#FFFFFF"/><stop offset=".48" stop-color="#EFEAE0"/><stop offset="1" stop-color="#CFC7B8"/></linearGradient><pattern id="tex" width="7" height="7" patternUnits="userSpaceOnUse"><rect width="7" height="7" fill="url(#tg)"/><circle cx="1.6" cy="2.2" r=".85" fill="#8A8172" opacity=".16"/><circle cx="5.1" cy="4.9" r=".62" fill="#8A8172" opacity=".16"/><circle cx="3.4" cy="6.3" r=".45" fill="#8A8172" opacity=".16"/><path d="M0 5.6 Q3 4.4 7 6.1" stroke="#8A8172" stroke-width=".35" fill="none" opacity=".16"/></pattern></defs><style>.s{fill:url(#tex);stroke:#3A3A42;stroke-width:1.05;stroke-linejoin:round;stroke-linecap:round}.c{fill:none;stroke:#3A3A42;stroke-linecap:round;stroke-linejoin:round}.d{fill:#3A3A42}</style><rect class="s" x="10.4" y="36.8" width="24.2" height="3.2" rx="1.6"/><rect class="s" x="13.2" y="34.2" width="18.6" height="2.6" rx="1.3"/><path class="s" d="M16.6 34.2C16.4 30 15.4 27.4 13.7 25.6C12.1 24 11.4 22.6 12 21C12.4 19.9 13.3 19.1 14.4 18.5L18.6 13.6C19.4 12.7 20.3 12 21.2 11.5L21.9 9.6L24 12L25.4 9.8L27.4 13.2C29.5 16.6 30.6 20.2 30.6 24L30.6 34.2Z"/><path class="c" stroke-width="1.6" d="M26.6 14.6C28.2 18 28.9 21.2 28.9 24.4L28.9 31.6"/><circle class="d" cx="17.2" cy="19" r="1.15"/></svg>