<svg xmlns="http://www.w3.org/2000/svg" viewBox="0 0 45 45" width="45" height="45"><style>.s{fill:#141A26;stroke:#93ACCB;stroke-width:1.05;stroke-linejoin:round;stroke-linecap:round}.c{fill:none;stroke:#93ACCB;stroke-linecap:round;stroke-linejoin:round}.d{fill:#93ACCB}</style><rect class="s" x="9" y="36.8" width="27" height="3.2" rx="1.6"/><rect class="s" x="12" y="34.2" width="21" height="2.6" rx="1.3"/><path class="s" d="M14.4 34.2C14.4 29.2 17.4 26.2 18.2 23.8L26.8 23.8C27.6 26.2 30.6 29.2 30.6 34.2Z"/><rect class="s" x="15.4" y="21.4" width="14.2" height="2.4" rx="1.2"/><path class="s" d="M14.7 21.4L16.9 12Q17.2 10.7 18.5 10.7L26.5 10.7Q27.8 10.7 28.1 12L30.3 21.4Z"/><rect class="s" x="21.3" y="4.6" width="2.4" height="6.4" rx="1.2"/><path class="c" stroke-width="2" d="M22.5 13.6L22.5 19.2"/><path class="c" stroke-width="2" d="M19.7 16.4L25.3 16.4"/></svg>